<?xml version="1.0" encoding="utf-8"?>
<!-- Generator: Adobe Illustrator 22.0.1, SVG Export Plug-In . SVG Version: 6.00 Build 0)  -->
<svg version="1.1" id="Calque_1" xmlns="http://www.w3.org/2000/svg" xmlns:xlink="http://www.w3.org/1999/xlink" x="0px" y="0px"
	 viewBox="0 0 2500 2500" style="enable-background:new 0 0 2500 2500;" xml:space="preserve">
<style type="text/css">
	.st0{fill:#B4B7BA;}
	.st1{fill:#272727;}
	.st2{fill:#00B7C1;}
	.st3{fill:#EF612F;}
	.st4{fill:#61B34D;}
</style>
<g>
	<path class="st0" d="M1014.2,1101.8L702.2,995l327.5,4.2l35.1,14.1L1014.2,1101.8z"/>
	<path class="st1" d="M1178.6,666.1c0,0,16.9-47.8,77.3-47.8c85.7,0,73.1,94.2,73.1,94.2l-9.8-4.2c0,0,7-75.9-64.7-75.9
		c-43.6,0-56.2,29.5-61.8,36.5L1178.6,666.1L1178.6,666.1z"/>
	<path class="st2" d="M1291.1,822.1c109.6,30.9,144.8,40.8,237.6,70.3c-26.7,25.3-36.5,196.8-36.5,196.8h-158.8
		C1333.2,1089.2,1337.5,900.8,1291.1,822.1L1291.1,822.1z"/>
	<path class="st1" d="M1340.3,820.7c0,0,9.8-32.3,52-32.3c57.6,0,49.2,64.7,49.2,64.7l-7-2.8c0,0,5.6-53.4-43.6-53.4
		c-29.5,0-37.9,21.1-42.2,26.7C1344.5,820.7,1340.3,820.7,1340.3,820.7L1340.3,820.7z M1102.7,895.2c0,0,7-23.9,39.4-23.9
		c45,0,38,47.8,38,47.8l-4.2-1.4c0,0,2.8-40.8-33.7-40.8c-23.9,0-29.5,16.9-33.7,19.7C1105.5,896.6,1102.7,895.2,1102.7,895.2
		L1102.7,895.2z"/>
	<path class="st3" d="M1150.5,885.4v23.9l16.9,4.2C1170.2,907.9,1170.2,888.2,1150.5,885.4z"/>
	<path class="st3" d="M1091.5,657.7c26.7,46.4,45,129.3,56.2,209.4c36.5,2.8,39.4,37.9,37.9,54.8l14.1,5.6
		c-7-30.9-15.5-59-26.7-80.1c67.5-22.5,106.8-36.5,106.8-36.5l49.2,12.6c11.2-29.5,26.7-43.6,63.2-43.6c12.6,1.4,23.9,2.8,32.3,7
		c5.6-18.3,9.8-26.7,16.9-32.3C1295.3,708.3,1265.8,706.9,1091.5,657.7z"/>
	<path class="st3" d="M1412,846c-18.3-4.2-39.4-11.2-57.6-15.5c8.4-15.5,29.5-32.3,63.2-15.5C1414.8,822.1,1413.4,832,1412,846z"/>
	<path class="st4" d="M1060.6,896.6c84.3,23.9,116.7,32.3,188.3,54.8c-36.5,33.7-35.1,154.6-35.1,154.6h-119.5
		C1094.3,1106,1097.1,957,1060.6,896.6z"/>
	<path class="st1" d="M1049.3,896.6c-28.1,9.8-36.5,12.6-73.1,25.3c26.7,47.8,33.7,182.7,33.7,182.7l73.1,1.4
		C1083,1106,1087.3,980.9,1049.3,896.6L1049.3,896.6z"/>
	<path class="st1" d="M1133.7,865.7c-9.8-70.3-26.7-143.4-54.8-208c-59,21.1-68.9,23.9-144.8,47.8c26.7,52,45,132.1,57.6,201
		l60.4-18.3l37.9,9.8C1091.5,893.8,1099.9,868.5,1133.7,865.7L1133.7,865.7z M1136.5,884c-15.5,0-22.5,9.8-23.9,19.7l26.7,8.4
		C1139.3,900.8,1136.5,884,1136.5,884z M1277,820.7c-36.5,14.1-45,16.9-94.2,32.3c11.2,18.3,16.9,45,23.9,75.9
		c15.5,4.2,35.1,11.2,56.2,18.3c-29.5,26.7-39.4,80.1-39.4,143.4c0,1.4,94.2-1.4,94.2-1.4S1324.8,931.8,1277,820.7L1277,820.7z
		 M603.8,1429.7c-32.3,0-43.6,18.3-43.6,32.3c0,11.2,1.4,52,1.4,75.9c0,54.8,67.5,77.3,67.5,143.4v92.8c0,14-12.6,21.1-23.9,21.1
		s-23.9-7-23.9-21.1v-91.4h-21.1v90c0,19.7,18.3,26.7,45,26.7c33.7,0,46.4-11.2,46.4-23.9v-97c0-53.4-71.7-118.1-71.7-150.4
		c0-26.7,1.4-35.1,1.4-71.7c0-16.9,14.1-21.1,23.9-21.1c14.1,0,21.1,9.8,21.1,16.9v85.8h21.1v-87.2
		C647.3,1445.2,636.1,1429.7,603.8,1429.7L603.8,1429.7z M692.3,1431.1V1798h23.9v-222.1c0-12.6,11.2-25.3,23.9-25.3
		c11.2,0,22.5,9.8,22.5,22.5v226.3h19.7v-226.3c0-21.1-19.7-29.5-42.2-29.5c-18.3,0-25.3,11.2-25.3,11.2v-123.7H692.3L692.3,1431.1z
		 M869.4,1542.2c-21.1,0-40.8,8.4-40.8,28.1v208c0,14,16.9,21.1,42.2,21.1s45-4.2,45-26.7v-201
		C915.8,1553.4,891.9,1542.2,869.4,1542.2L869.4,1542.2z M894.7,1778.3c0,11.2-14.1,16.9-23.9,16.9c-12.6,0-22.5-9.8-22.5-18.3V1566
		c0-9.8,7-15.5,21.1-15.5s25.3,4.2,25.3,14L894.7,1778.3L894.7,1778.3z M1005.7,1545c-11.2,0-23.9,7-23.9,7l-1.4-5.6h-21.1v359.8
		h21.1V1791c0,0,9.8,9.8,25.3,9.8c16.9,0,40.8-5.6,40.8-19.7v-213.6C1046.5,1546.4,1017,1545,1005.7,1545L1005.7,1545z
		 M1026.8,1779.7c0,9.8-14.1,15.5-22.5,15.5c-7,0-21.1-9.8-21.1-15.5v-206.6c0-9.8,7-21.1,21.1-21.1c15.5,0,22.5,7,22.5,19.7V1779.7
		L1026.8,1779.7z M1139.3,1546.4c-11.2,0-23.9,8.4-23.9,8.4v-7h-21.1v359.8h21.1v-115.3c0,0,8.4,9.8,23.9,9.8
		c16.9,0,40.8-5.6,40.8-19.7v-213.7C1180,1547.8,1150.5,1546.4,1139.3,1546.4L1139.3,1546.4z M1160.4,1782.5c0,8.4-14.1,14-21.1,14
		c-8.4,0-22.5-9.8-22.5-15.5v-205.2c0-11.2,7-22.5,22.5-22.5c14.1,0,21.1,7,21.1,19.7V1782.5z M1229.2,1546.4V1798h21.1v-250.2
		L1229.2,1546.4L1229.2,1546.4z M1299.5,1547.8v251.6h19.7v-223.5c0-8.4,9.8-23.9,23.9-23.9c16.9,0,22.5,8.4,22.5,19.7v227.7h21.1
		v-227.7c0-21.1-21.1-28.1-43.6-28.1c-11.2,0-23.9,9.8-23.9,9.8v-5.6H1299.5z M1473.8,1695.4c-19.7,0-19.7-5.6-19.7-11.2
		c0-7,5.6-11.2,22.5-11.2c8.4,0,42.2,0,42.2-22.5v-84.3c0-7-8.4-18.3-8.4-18.3l11.2-28.1h-21.1v26.7c0,0-16.9-4.2-25.3-4.2
		c-21.1,0-42.2,11.2-42.2,23.9v85.8c0,7,18.3,15.5,18.3,15.5s-14.1,8.4-14.1,16.9c0,8.4,11.2,14.1,11.2,14.1s-15.5,11.2-15.5,16.9
		v170.1c0,16.9,9.8,21.1,43.6,21.1c29.5,0,43.6-4.2,43.6-19.7V1714C1520.2,1698.2,1499.1,1695.4,1473.8,1695.4L1473.8,1695.4z
		 M1456.9,1563.3c0-4.2,7-11.2,18.3-11.2c11.2,0,21.1,4.2,21.1,15.5v81.5c0,12.6-2.8,18.3-19.7,18.3c-16.9,0-19.7-5.6-19.7-14
		L1456.9,1563.3L1456.9,1563.3z M1497.7,1887.9c0,11.2-7,14-22.5,14c-14.1,0-22.5-5.6-22.5-18.3v-163.1c0-8.4,5.6-18.3,22.5-18.3
		c15.5,0,22.5,2.8,22.5,11.2V1887.9L1497.7,1887.9z M1568,1431.1h25.3v357h45v8.4H1568V1431.1z M1226.4,1499.8l26.7-1.4l-4.2,30.9
		h-18.3L1226.4,1499.8z M1665,1499.6l28.1-1.4l-5.6,30.9h-18.3L1665,1499.6L1665,1499.6z M1667.8,1547.8v247.4h19.7v-248.8
		L1667.8,1547.8L1667.8,1547.8z M1777.4,1542.2c-22.5,0-43.6,9.8-43.6,23.9v56.2c0,35.1,64.7,60.4,64.7,90v67.5
		c0,11.2-5.6,14-19.7,14c-12.6,0-22.5-2.8-22.5-11.2v-66.1h-22.5v61.9c0,16.9,19.7,21.1,45,21.1s43.6-5.6,43.6-26.7v-59
		c0-32.3-64.7-67.5-64.7-90v-60.4c0-7,7-14.1,19.7-14.1c12.6,0,22.5,5.6,22.5,12.6v59h22.5v-60.4
		C1822.4,1554.8,1809.7,1542.2,1777.4,1542.2L1777.4,1542.2z M1894.1,1471.9v74.5h36.5v8.4h-36.5v223.5c0,8.4,5.6,16.9,18.3,16.9
		c12.6,0,23.9-11.2,23.9-11.2l7-1.4v7c0,0-2.8,9.8-30.9,9.8s-42.2-7-42.2-26.7v-217.9h-22.5v-8.4h22.5v-74.5L1894.1,1471.9
		L1894.1,1471.9z"/>
</g>
<g>
	<path d="M603.7,1169.8h-50.8v-26.9h123.6v26.9h-51v218.1h-21.8V1169.8z"/>
	<path d="M692.6,1129.8h21.8v109.8h0.5c3.5-9.1,8.9-17.1,15.6-22.5c6.4-5.5,14.1-9.1,22.3-9.1c16.1,0,41.9,14.5,41.9,75.2v104.7
		h-21.8v-101c0-28.3-7.2-52.3-27.7-52.3c-14.1,0-25.3,14.5-29.2,32c-1.2,4.4-1.5,9.1-1.5,15.3v106.1h-21.8V1129.8z"/>
	<path d="M842.2,1305.7c0.5,43.3,19.3,61.1,41.1,61.1c15.6,0,25-4,33.2-9.1l3.7,22.9c-7.7,5.1-20.8,10.9-39.9,10.9
		c-36.9,0-59-35.6-59-88.7c0-53.1,21.3-94.9,56.2-94.9c39.1,0,49.5,50.5,49.5,82.9c0,6.5-0.5,11.6-0.7,14.9H842.2z M906.1,1282.8
		c0.2-20.4-5.7-52-30.2-52c-22,0-31.7,29.8-33.4,52H906.1z"/>
	<path d="M1007.4,1142.9h89.9v26.5H1029v81.4h63.2v26.2H1029v110.9h-21.6V1142.9z"/>
	<path d="M1120.9,1266.8c0-20.7-0.2-38.5-1-54.9h19.1l0.7,34.5h1c5.4-23.6,18.6-38.5,33.2-38.5c2.5,0,4.2,0.4,6.2,1.1v30.2
		c-2.2-0.7-4.5-1.1-7.4-1.1c-15.4,0-26.3,17.1-29.2,41.1c-0.5,4.4-1,9.4-1,14.9v93.8h-21.6V1266.8z"/>
	<path d="M1267,1387.8l-1.7-22.2h-0.7c-6.7,13.8-19.6,26.2-36.7,26.2c-24.3,0-36.7-25.1-36.7-50.5c0-42.5,25.8-65.8,72.1-65.4v-3.6
		c0-14.5-2.7-40.7-27.2-40.7c-11.1,0-22.8,5.1-31.2,13.1l-5-21.1c9.9-9.5,24.3-15.6,39.4-15.6c36.7,0,45.6,36.7,45.6,72v65.8
		c0,15.3,0.5,30.2,2,42.2H1267z M1263.8,1298.1c-23.8-0.7-50.8,5.5-50.8,39.6c0,20.7,9.4,30.5,20.6,30.5c15.6,0,25.5-14.5,29-29.4
		c0.7-3.3,1.2-6.9,1.2-10.2V1298.1z"/>
	<path d="M1320,1259.5c0-18.2-0.2-33.1-1-47.6h19.3l1.2,29.1h0.5c5.9-16.7,19.8-33.1,39.6-33.1c16.6,0,42.4,14.5,42.4,74.9v105
		h-21.8v-101.4c0-28.3-7.2-52-27.7-52c-14.4,0-25.5,14.9-29.2,32.7c-1,4-1.5,9.4-1.5,14.9v105.8H1320V1259.5z"/>
	<path d="M1543,1381.3c-5.7,4.4-18.3,10.2-34.4,10.2c-36.2,0-59.7-36-59.7-89.8c0-54.2,25.3-93.4,64.4-93.4
		c12.9,0,24.3,4.7,30.2,9.1l-5,24.7c-5.2-4.4-13.4-8.4-25.3-8.4c-27.5,0-42.4,29.8-42.4,66.5c0,40.7,17.8,65.8,41.6,65.8
		c12.4,0,20.6-4.7,26.8-8.7L1543,1381.3z"/>
	<path d="M1590.1,1292.6h0.5c3-6.2,7.2-13.8,10.7-20l35.2-60.7h26.3l-46.3,72.3l52.8,103.6h-26.5l-41.4-84.3l-11.1,18.2v66.1h-21.6
		v-258.1h21.6V1292.6z"/>
	<path d="M1695.8,1211.9l26.3,104c2.7,11.6,5.7,25.4,7.7,36h0.5c2.2-10.5,4.7-24,7.7-36.7l23.8-103.2h23l-32.7,125.4
		c-15.6,60.3-26.3,91.2-41.1,110.1c-10.7,13.8-21.3,19.3-26.8,20.7l-5.5-26.9c5.5-2.5,12.6-7.6,19.1-15.6
		c5.9-6.9,13.4-19.3,18.3-35.6c1-3.3,1.7-5.8,1.7-7.6c0-1.8-0.5-4.4-1.5-8.4l-44.3-162.1H1695.8z"/>
	<path d="M1839.5,1076.9c-5.7,30.5-16.3,69.4-23.3,86.1l-13.9,2.5c5.4-21.4,11.9-59.2,14.6-85.4L1839.5,1076.9z"/>
	<path d="M1842.5,1355.1c6.4,6.2,17.8,12.7,28.7,12.7c15.9,0,23.3-11.6,23.3-26.2c0-15.3-6.2-23.6-22.3-32.3
		c-21.6-11.3-31.7-28.7-31.7-49.8c0-28.3,15.6-51.6,41.4-51.6c12.1,0,22.8,5.1,29.5,10.9l-5.5,23.3c-4.7-4.4-13.4-10.2-24.5-10.2
		c-12.9,0-20.1,10.9-20.1,24c0,14.5,7.2,21.1,22.8,29.8c20.8,11.6,31.5,26.9,31.5,53.1c0,30.9-16.3,52.7-44.8,52.7
		c-13.1,0-25.3-4.7-33.7-12L1842.5,1355.1z"/>
</g>
</svg>
